name rise36.2859peak64.2979fall75.1499.mot
datacolumns 19
datarows 27
range 9.34162800000000 9.38498900000000
endheader
time	ground_force1_vx	ground_force1_vy	ground_force1_vz	ground_force1_px	ground_force1_py	ground_force1_pz	ground_force2_vx	ground_force2_vy	ground_force2_vz	ground_force2_px	ground_force2_py	ground_force2_pz	ground_torque1_x	ground_torque1_y	ground_torque1_z	ground_torque2_x	ground_torque2_y	ground_torque2_z	
9.34162800000000	-4.82640900000000	704.15058899999997	40.26540000000000	0.23483800000000	0.00000000000000	0.10034300000000	0.00000000000000	0.00000000000000	0.00000000000000	0.00000000000000	0.00000000000000	0.00000000000000	0.00000000000000	20.78220300000000	0.00000000000000	0.00000000000000	0.00000000000000	0.00000000000000	
9.34329500000000	-5.51443400000000	705.24176699999998	40.28705800000000	0.23355100000000	0.00000000000000	0.10039900000000	0.00000000000000	0.00000000000000	0.00000000000000	0.00000000000000	0.00000000000000	0.00000000000000	0.00000000000000	20.87602300000000	0.00000000000000	0.00000000000000	0.00000000000000	0.00000000000000	
9.34497500000000	-6.21536300000000	706.36576700000001	40.31035600000000	0.23225800000000	0.00000000000000	0.10045600000000	0.00000000000000	0.00000000000000	0.00000000000000	0.00000000000000	0.00000000000000	0.00000000000000	0.00000000000000	20.97352600000000	0.00000000000000	0.00000000000000	0.00000000000000	0.00000000000000	
9.34663500000000	-6.92903100000000	707.52289900000005	40.33547400000000	0.23096000000000	0.00000000000000	0.10051400000000	0.00000000000000	0.00000000000000	0.00000000000000	0.00000000000000	0.00000000000000	0.00000000000000	0.00000000000000	21.07472800000000	0.00000000000000	0.00000000000000	0.00000000000000	0.00000000000000	
9.34829800000000	-7.65522500000000	708.71352500000000	40.36260400000000	0.22965800000000	0.00000000000000	0.10057300000000	0.00000000000000	0.00000000000000	0.00000000000000	0.00000000000000	0.00000000000000	0.00000000000000	0.00000000000000	21.17963800000000	0.00000000000000	0.00000000000000	0.00000000000000	0.00000000000000	
9.34996500000000	-8.39368900000000	709.93804899999998	40.39195600000000	0.22835300000000	0.00000000000000	0.10063200000000	0.00000000000000	0.00000000000000	0.00000000000000	0.00000000000000	0.00000000000000	0.00000000000000	0.00000000000000	21.28826000000000	0.00000000000000	0.00000000000000	0.00000000000000	0.00000000000000	
9.35163200000000	-9.14411800000000	711.19691699999998	40.42375200000000	0.22704800000000	0.00000000000000	0.10069200000000	0.00000000000000	0.00000000000000	0.00000000000000	0.00000000000000	0.00000000000000	0.00000000000000	0.00000000000000	21.40059200000000	0.00000000000000	0.00000000000000	0.00000000000000	0.00000000000000	
9.35330100000000	-9.90616500000000	712.49060899999995	40.45822600000000	0.22574100000000	0.00000000000000	0.10075200000000	0.00000000000000	0.00000000000000	0.00000000000000	0.00000000000000	0.00000000000000	0.00000000000000	0.00000000000000	21.51662700000000	0.00000000000000	0.00000000000000	0.00000000000000	0.00000000000000	
9.35497400000000	-10.67943800000000	713.81963099999996	40.49562800000000	0.22443600000000	0.00000000000000	0.10081300000000	0.00000000000000	0.00000000000000	0.00000000000000	0.00000000000000	0.00000000000000	0.00000000000000	0.00000000000000	21.63635000000000	0.00000000000000	0.00000000000000	0.00000000000000	0.00000000000000	
9.35663200000000	-11.46350400000000	715.18451500000003	40.53621400000000	0.22313400000000	0.00000000000000	0.10087300000000	0.00000000000000	0.00000000000000	0.00000000000000	0.00000000000000	0.00000000000000	0.00000000000000	0.00000000000000	21.75973900000000	0.00000000000000	0.00000000000000	0.00000000000000	0.00000000000000	
9.35829500000000	-12.25789000000000	716.58580400000005	40.58025400000000	0.22183400000000	0.00000000000000	0.10093400000000	0.00000000000000	0.00000000000000	0.00000000000000	0.00000000000000	0.00000000000000	0.00000000000000	0.00000000000000	21.88676700000000	0.00000000000000	0.00000000000000	0.00000000000000	0.00000000000000	
9.35996600000000	-13.06208500000000	718.02404899999999	40.62802700000000	0.22054000000000	0.00000000000000	0.10099600000000	0.00000000000000	0.00000000000000	0.00000000000000	0.00000000000000	0.00000000000000	0.00000000000000	0.00000000000000	22.01739800000000	0.00000000000000	0.00000000000000	0.00000000000000	0.00000000000000	
9.36162800000000	-13.87553800000000	719.49980300000004	40.67982100000000	0.21925200000000	0.00000000000000	0.10105700000000	0.00000000000000	0.00000000000000	0.00000000000000	0.00000000000000	0.00000000000000	0.00000000000000	0.00000000000000	22.15158800000000	0.00000000000000	0.00000000000000	0.00000000000000	0.00000000000000	
9.36330300000000	-14.69766800000000	721.01360999999997	40.73593000000000	0.21797000000000	0.00000000000000	0.10111800000000	0.00000000000000	0.00000000000000	0.00000000000000	0.00000000000000	0.00000000000000	0.00000000000000	0.00000000000000	22.28928600000000	0.00000000000000	0.00000000000000	0.00000000000000	0.00000000000000	
9.36497700000000	-15.52785500000000	722.56600000000003	40.79665500000000	0.21669700000000	0.00000000000000	0.10117900000000	0.00000000000000	0.00000000000000	0.00000000000000	0.00000000000000	0.00000000000000	0.00000000000000	0.00000000000000	22.43043200000000	0.00000000000000	0.00000000000000	0.00000000000000	0.00000000000000	
9.36663100000000	-16.36545400000000	724.15747499999998	40.86230600000000	0.21543300000000	0.00000000000000	0.10124000000000	0.00000000000000	0.00000000000000	0.00000000000000	0.00000000000000	0.00000000000000	0.00000000000000	0.00000000000000	22.57495900000000	0.00000000000000	0.00000000000000	0.00000000000000	0.00000000000000	
9.36830000000000	-17.20978700000000	725.78850999999997	40.93319300000000	0.21418000000000	0.00000000000000	0.10130100000000	0.00000000000000	0.00000000000000	0.00000000000000	0.00000000000000	0.00000000000000	0.00000000000000	0.00000000000000	22.72279100000000	0.00000000000000	0.00000000000000	0.00000000000000	0.00000000000000	
9.36996700000000	-18.06015100000000	727.45953399999996	41.00963200000000	0.21293800000000	0.00000000000000	0.10136200000000	0.00000000000000	0.00000000000000	0.00000000000000	0.00000000000000	0.00000000000000	0.00000000000000	0.00000000000000	22.87384500000000	0.00000000000000	0.00000000000000	0.00000000000000	0.00000000000000	
9.37162900000000	-18.91582000000000	729.17093100000000	41.09194300000000	0.21170900000000	0.00000000000000	0.10142200000000	0.00000000000000	0.00000000000000	0.00000000000000	0.00000000000000	0.00000000000000	0.00000000000000	0.00000000000000	23.02802900000000	0.00000000000000	0.00000000000000	0.00000000000000	0.00000000000000	
9.37330000000000	-19.77604400000000	730.92302199999995	41.18044400000000	0.21049300000000	0.00000000000000	0.10148200000000	0.00000000000000	0.00000000000000	0.00000000000000	0.00000000000000	0.00000000000000	0.00000000000000	0.00000000000000	23.18524100000000	0.00000000000000	0.00000000000000	0.00000000000000	0.00000000000000	
9.37496200000000	-20.64005600000000	732.71606599999996	41.27545500000000	0.20929200000000	0.00000000000000	0.10154100000000	0.00000000000000	0.00000000000000	0.00000000000000	0.00000000000000	0.00000000000000	0.00000000000000	0.00000000000000	23.34537500000000	0.00000000000000	0.00000000000000	0.00000000000000	0.00000000000000	
9.37663400000000	-21.50706900000000	734.55024200000003	41.37729400000000	0.20810500000000	0.00000000000000	0.10160000000000	0.00000000000000	0.00000000000000	0.00000000000000	0.00000000000000	0.00000000000000	0.00000000000000	0.00000000000000	23.50831400000000	0.00000000000000	0.00000000000000	0.00000000000000	0.00000000000000	
9.37829600000000	-22.37628500000000	736.42564800000002	41.48627900000000	0.20693400000000	0.00000000000000	0.10165800000000	0.00000000000000	0.00000000000000	0.00000000000000	0.00000000000000	0.00000000000000	0.00000000000000	0.00000000000000	23.67393500000000	0.00000000000000	0.00000000000000	0.00000000000000	0.00000000000000	
9.37999400000000	-23.24689200000000	738.34228900000005	41.60272300000000	0.20578000000000	0.00000000000000	0.10171600000000	0.00000000000000	0.00000000000000	0.00000000000000	0.00000000000000	0.00000000000000	0.00000000000000	0.00000000000000	23.84210600000000	0.00000000000000	0.00000000000000	0.00000000000000	0.00000000000000	
9.38162800000000	-24.11806900000000	740.30006800000001	41.72693200000000	0.20464300000000	0.00000000000000	0.10177300000000	0.00000000000000	0.00000000000000	0.00000000000000	0.00000000000000	0.00000000000000	0.00000000000000	0.00000000000000	24.01269000000000	0.00000000000000	0.00000000000000	0.00000000000000	0.00000000000000	
9.38329900000000	-24.98898800000000	742.29877999999997	41.85920900000000	0.20352300000000	0.00000000000000	0.10183000000000	0.00000000000000	0.00000000000000	0.00000000000000	0.00000000000000	0.00000000000000	0.00000000000000	0.00000000000000	24.18554100000000	0.00000000000000	0.00000000000000	0.00000000000000	0.00000000000000	
9.38498900000000	-25.85881500000000	744.33810400000004	41.99984800000000	0.20242100000000	0.00000000000000	0.10188600000000	0.00000000000000	0.00000000000000	0.00000000000000	0.00000000000000	0.00000000000000	0.00000000000000	0.00000000000000	24.36050800000000	0.00000000000000	0.00000000000000	0.00000000000000	0.00000000000000	
